<!DOCTYPE svg PUBLIC "-//W3C//DTD SVG 1.1//EN" "http://www.w3.org/Graphics/SVG/1.1/DTD/svg11.dtd">
<!-- Uploaded to: SVG Repo, www.svgrepo.com, Transformed by: SVG Repo Mixer Tools -->
<svg version="1.1" id="_x32_" xmlns="http://www.w3.org/2000/svg" xmlns:xlink="http://www.w3.org/1999/xlink" viewBox="0 0 512 512" xml:space="preserve" width="800px" height="800px" fill="#000000">
<g id="SVGRepo_bgCarrier" stroke-width="0"/>
<g id="SVGRepo_tracerCarrier" stroke-linecap="round" stroke-linejoin="round"/>
<g id="SVGRepo_iconCarrier"> <style type="text/css"> .st0{fill:#ffffff;} </style> <g> <rect y="239.908" class="st0" width="68.958" height="32.185"/> <rect x="443.059" y="239.908" class="st0" width="68.941" height="32.185"/> <polygon class="st0" points="26.248,370.057 42.341,397.943 102.053,363.464 85.961,335.586 "/> <polygon class="st0" points="485.752,141.934 469.658,114.057 409.947,148.536 426.039,176.413 "/> <polygon class="st0" points="114.065,469.658 141.943,485.752 176.422,426.039 148.544,409.947 "/> <polygon class="st0" points="397.952,42.341 370.057,26.248 335.596,85.961 363.473,102.053 "/> <rect x="239.916" y="443.051" class="st0" width="32.185" height="68.949"/> <rect x="239.916" class="st0" width="32.185" height="68.949"/> <polygon class="st0" points="335.596,426.039 370.057,485.752 397.952,469.658 363.473,409.947 "/> <polygon class="st0" points="176.422,85.961 141.943,26.248 114.065,42.341 148.544,102.053 "/> <polygon class="st0" points="409.947,363.464 469.658,397.943 485.752,370.057 426.039,335.586 "/> <polygon class="st0" points="102.053,148.536 42.341,114.057 26.248,141.934 85.961,176.413 "/> <path class="st0" d="M256.009,99.926c-86.207,0-156.074,69.877-156.074,156.074c0,86.197,69.868,156.074,156.074,156.074 c86.188,0,156.074-69.878,156.074-156.074C412.083,169.802,342.197,99.926,256.009,99.926z"/> </g> </g>
</svg>